<?xml version="1.0" encoding="UTF-8" standalone="no"?>
<svg
   version="1.1"
   id="Layer_1"
   x="0px"
   y="0px"
   width="240"
   viewBox="0 0 240 420"
   enable-background="new 0 0 400 500"
   xml:space="preserve"
   sodipodi:docname="logo-emc.svg"
   inkscape:version="1.2.2 (b0a84865, 2022-12-01)"
   height="420"
   xmlns:inkscape="http://www.inkscape.org/namespaces/inkscape"
   xmlns:sodipodi="http://sodipodi.sourceforge.net/DTD/sodipodi-0.dtd"
   xmlns="http://www.w3.org/2000/svg"
   xmlns:svg="http://www.w3.org/2000/svg"><defs
   id="defs533" /><sodipodi:namedview
   id="namedview531"
   pagecolor="#ffffff"
   bordercolor="#000000"
   borderopacity="0.25"
   inkscape:showpageshadow="2"
   inkscape:pageopacity="0.0"
   inkscape:pagecheckerboard="0"
   inkscape:deskcolor="#d1d1d1"
   showgrid="false"
   inkscape:zoom="2.8284271"
   inkscape:cx="141.95169"
   inkscape:cy="417.90011"
   inkscape:window-width="1440"
   inkscape:window-height="798"
   inkscape:window-x="0"
   inkscape:window-y="149"
   inkscape:window-maximized="0"
   inkscape:current-layer="layer2" />

	
	
	
	
<g
   inkscape:groupmode="layer"
   id="layer2"
   inkscape:label="Layer 1"><path
     id="rect545"
     style="fill:#3e8ff3"
     d="m 240.52539,-0.88085938 -240.90624938,0.5 -0.5,420.49023938 c 78.46867238,0.13802 163.43757938,0.63896 241.40624938,0.5 z M 115.80469,14.425781 c 1.74528,-0.04599 3.60535,0.13697 5.55664,0.552735 12.5646,2.677155 16.5194,6.770086 19.08398,21.269531 3.06703,17.340093 -0.77324,34.233594 -4.22265,51.054687 -1.78706,8.714732 -4.50326,17.238316 -7.00586,26.195316 -0.87221,2.31574 -1.53714,4.28441 -2.63086,7.51953 -2.30211,-4.89803 -4.54353,-8.74226 -5.97461,-12.86914 -6.46626,-18.647234 -13.38019,-37.185771 -18.69141,-56.166018 -2.129066,-7.608498 -1.62942,-16.421219 -0.39648,-24.386719 1.31166,-8.473985 6.71835,-12.970638 14.28125,-13.169922 z m 91.87109,35.201172 c 1.89627,0.08322 3.86376,0.691778 5.79102,1.759766 13.8286,7.663101 18.02822,17.210833 10.85351,31.224609 -3.96938,7.753232 -9.82801,14.540289 -15.08984,22.013672 -10.79607,10.52938 -21.33797,20.80778 -31.87891,31.08594 -0.42377,-0.36597 -0.84576,-0.73168 -1.26953,-1.09766 1.80392,-20.41929 4.64359,-40.71566 11.60938,-60.076171 2.64437,-7.349732 6.97703,-14.305983 11.61523,-20.65625 2.24547,-3.074299 5.2087,-4.392607 8.36914,-4.253906 z M 33.023438,67.638672 c 7.003805,0.321759 11.057106,5.407125 14.636718,10.923828 10.71378,16.511473 15.28568,35.34781 19.822266,54.16211 0.37036,1.53599 0.674899,3.08762 1.236328,5.66992 -19.53036,-9.26028 -38.03807,-18.27342 -51.535156,-35.38672 -5.846079,-7.79244 -4.035566,-16.214966 -1.457032,-23.712888 2.001569,-5.820194 6.9513,-10.468506 14.107422,-11.490234 1.128198,-0.161082 2.18891,-0.211982 3.189454,-0.166016 z m 97.970702,94.044918 c 15.95155,0.31285 31.08227,4.08348 45.22461,11.63477 22.60502,12.06986 36.39523,30.54631 39.39258,56.63867 1.39114,12.10991 1.32095,23.83403 -2.97266,35.38867 -4.90304,13.19466 -14.05875,22.82139 -25.5957,30.23242 -14.0353,9.01587 -29.61685,14.01853 -46.10156,16.28126 -0.49249,0.0676 -1.00986,-0.0226 -1.49414,0.0723 -11.03992,2.16187 -11.14308,2.52434 -8.91407,14.12695 3.37614,17.57354 9.84776,33.85704 21.44141,47.53125 9.39324,11.07884 20.42945,20.5218 33.48828,27.29493 1.27826,0.66302 2.51828,1.4043 5.16797,2.88867 -6.53533,1.57275 -11.68591,3.40863 -16.96875,3.95703 -10.47526,1.0874 -21.04519,2.25632 -31.53906,1.98242 -28.75456,-0.75049 -51.484484,-13.29449 -68.121097,-36.80469 -0.28564,-0.40366 -0.680229,-0.73017 -1.230469,-1.39843 -12.266627,-18.85165 -19.226646,-39.27475 -23.388672,-60.91211 -3.929776,-20.42994 -5.248046,-41.09448 -3.449218,-61.59571 1.010129,-11.51232 5.742142,-22.93604 10.148437,-33.85351 5.512035,-13.65715 13.999235,-25.60378 25.121094,-35.51563 12.252858,-10.9198 26.250425,-17.18311 42.904295,-17.87109 2.31177,-0.0955 4.60793,-0.12282 6.88672,-0.0781 z"
     sodipodi:nodetypes="cccccsssscccsssssccccssssssccsssscsssscssscssscssssss" /></g><g
   id="g679"
   transform="translate(-80.508475,-38.135593)"
   style="display:inline" /></svg>
