<svg version="1.1" id="Layer_1"
	xmlns="http://www.w3.org/2000/svg"
	xmlns:xlink="http://www.w3.org/1999/xlink" x="0px" y="0px" width="100%" viewBox="0 0 400 500" enable-background="new 0 0 400 500" xml:space="preserve">

	<path fill="#2DCAD3" opacity="1.000000" stroke="none" d="
M153.279236,409.644928 
	C141.012604,390.793274 134.052383,370.371002 129.890350,348.733612 
	C125.960571,328.303650 124.643967,307.638672 126.442802,287.137421 
	C127.452927,275.625092 132.183502,264.202332 136.589798,253.284851 
	C142.101837,239.627686 150.590073,227.680130 161.711945,217.768265 
	C173.964813,206.848465 187.962784,200.584335 204.616669,199.896347 
	C223.110870,199.132339 240.565491,202.824417 256.728180,211.454468 
	C279.333221,223.524338 293.122650,241.999466 296.119995,268.091858 
	C297.511139,280.201782 297.440216,291.927216 293.146606,303.481873 
	C288.243561,316.676544 279.088135,326.303009 267.551178,333.714050 
	C253.515869,342.729919 237.934860,347.733124 221.450134,349.995850 
	C220.957642,350.063446 220.439514,349.972595 219.955231,350.067444 
	C208.915298,352.229309 208.813568,352.592163 211.042587,364.194794 
	C214.418732,381.768341 220.889969,398.050262 232.483627,411.724487 
	C241.876877,422.803345 252.913361,432.247803 265.972198,439.020935 
	C267.250458,439.683960 268.488892,440.423737 271.138580,441.908112 
	C264.603241,443.480865 259.454010,445.316742 254.171158,445.865143 
	C243.695892,446.952545 233.126221,448.121948 222.632339,447.848053 
	C193.877747,447.097565 171.146179,434.553772 154.509552,411.043549 
	C154.223907,410.639893 153.829483,410.313202 153.279236,409.644928 
z"/>
	<path fill="#2DCAD3" opacity="1.000000" stroke="none" d="
M209.725540,151.633896 
	C208.853333,153.949646 208.187622,155.918747 207.093903,159.153870 
	C204.791794,154.255844 202.550171,150.410004 201.119095,146.283112 
	C194.652832,127.635864 187.739807,109.098297 182.428589,90.118034 
	C180.299515,82.509529 180.799484,73.697571 182.032425,65.732063 
	C183.646774,55.302532 191.462234,50.896553 201.869110,53.113964 
	C214.433716,55.791122 218.389221,59.883598 220.953812,74.383057 
	C224.020844,91.723167 220.180222,108.616737 216.730804,125.437851 
	C214.943741,134.152588 212.228149,142.676895 209.725540,151.633896 
z"/>
	<path fill="#2DCAD3" opacity="1.000000" stroke="none" d="
M289.738861,142.760223 
	C278.942780,153.289612 268.401825,163.567780 257.860870,173.845947 
	C257.437103,173.479980 257.013367,173.113998 256.589600,172.748016 
	C258.393524,152.328705 261.233673,132.032700 268.199463,112.672165 
	C270.843842,105.322426 275.177399,98.367050 279.815613,92.016777 
	C283.408356,87.097893 288.835388,86.673683 293.974762,89.521652 
	C307.803375,97.184761 312.002960,106.733528 304.828247,120.747322 
	C300.858856,128.500565 295.000702,135.286835 289.738861,142.760223 
z"/>
	<path fill="#2DCAD3" opacity="1.000000" stroke="none" d="
M97.691330,141.143890 
	C91.845245,133.351440 93.656708,124.927498 96.235245,117.429573 
	C98.236816,111.609367 103.185959,106.962845 110.342094,105.941116 
	C119.367683,104.652473 124.077255,110.393433 128.168243,116.698242 
	C138.882034,133.209732 143.453659,152.046204 147.990250,170.860519 
	C148.360611,172.396515 148.666336,173.948105 149.227768,176.530396 
	C129.697388,167.270111 111.188431,158.257202 97.691330,141.143890 
z"/>
</svg>